<?xml version="1.0" encoding="UTF-8"?>
<svg width="283px" height="39px" viewBox="0 0 283 39" version="1.1" xmlns="http://www.w3.org/2000/svg" xmlns:xlink="http://www.w3.org/1999/xlink">
    <!-- Generator: Sketch 53.2 (72643) - https://sketchapp.com -->
    <title>LEAPP Dashboard</title>
    <desc>Created with Sketch.</desc>
    <g id="Page-1" stroke="none" stroke-width="1" fill="none" fill-rule="evenodd">
        <g id="LEAPP-Dashboard" transform="translate(1.000000, 1.000000)">
            <g id="LeAppLogoProposal">
                <g id="LeAppLogo" fill-rule="nonzero" stroke="#000000" stroke-width="0.5">
                    <path d="M89.4359492,13.300173 L104.455017,13.300173 C93.8370918,4.433391 80.4287874,0 64.2301038,0 C73.9903058,0 80.6603666,4.433391 89.4359492,13.300173 Z" id="Path" fill="#820000"></path>
                    <path d="M0.0873452503,37.2515015 L18.2356698,37.2515015 C34.1057898,16.0577299 49.6501713,-5.12403799e-15 64.2301038,0 C40.0322733,0 18.709584,16.0577299 0.0873452503,37.2515015 Z" id="Path" fill="#F0F0F0"></path>
                </g>
                <g id="LEAPP" transform="translate(0.162197, 14.273356)">
                    <g id="path-2-link" fill="#000000" fill-rule="nonzero">
                        <path d="M0,0 L7.0963724,0 L7.0963724,17.3101358 L18.1717262,17.3101358 L18.1717262,22.9653023 L0,22.9653023 L0,0 Z M20.5142081,0 L39.5318595,0 L39.5318595,4.90323302 L27.6262458,4.90323302 L27.6262458,8.55324362 L38.6702691,8.55324362 L38.6702691,13.2371626 L27.6262458,13.2371626 L27.6262458,17.764429 L39.8764957,17.764429 L39.8764957,22.9653023 L20.5142081,22.9653023 L20.5142081,0 Z M56.9600074,19.1743042 L48.8767221,19.1743042 L47.7644872,22.9653023 L40.511462,22.9653023 L49.143032,0 L56.8816808,0 L65.5132508,22.9653023 L58.0879076,22.9653023 L56.9600074,19.1743042 Z M55.4718056,14.20841 L52.9340301,5.95280693 L50.4119197,14.20841 L55.4718056,14.20841 Z M66.8844853,0 L78.680442,0 C81.249561,0 83.1737605,0.610939863 84.4530981,1.8328379 C85.7324359,3.05473589 86.3720951,4.79356482 86.3720951,7.04937651 C86.3720951,9.3678497 85.674997,11.1797825 84.2807801,12.4852291 C82.886563,13.7906758 80.758717,14.4433894 77.897178,14.4433894 L74.0121882,14.4433894 L74.0121882,22.9653023 L66.8844853,22.9653023 L66.8844853,0 Z M74.0121882,9.79080071 L75.7510345,9.79080071 C77.1191425,9.79080071 78.0799368,9.55321307 78.6334462,9.07803049 C79.1869556,8.60284791 79.4637061,7.99451892 79.4637061,7.25302519 C79.4637061,6.53241874 79.2235076,5.92147886 78.7431032,5.42018723 C78.2626989,4.91889576 77.3593433,4.66825384 76.0330095,4.66825384 L74.0121882,4.66825384 L74.0121882,9.79080071 Z M89.1845354,0 L100.980492,0 C103.549611,0 105.473811,0.610939863 106.753148,1.8328379 C108.032486,3.05473589 108.672145,4.79356482 108.672145,7.04937651 C108.672145,9.3678497 107.975047,11.1797825 106.58083,12.4852291 C105.186613,13.7906758 103.058767,14.4433894 100.197228,14.4433894 L96.3122384,14.4433894 L96.3122384,22.9653023 L89.1845354,22.9653023 L89.1845354,0 Z M96.3122384,9.79080071 L98.0510847,9.79080071 C99.4191927,9.79080071 100.379987,9.55321307 100.933496,9.07803049 C101.487006,8.60284791 101.763756,7.99451892 101.763756,7.25302519 C101.763756,6.53241874 101.523558,5.92147886 101.043153,5.42018723 C100.562749,4.91889576 99.6593935,4.66825384 98.3330597,4.66825384 L96.3122384,4.66825384 L96.3122384,9.79080071 Z" id="path-2"></path>
                    </g>
                    <g id="path-2-link" fill="#A30000">
                        <path d="M0,0 L7.0963724,0 L7.0963724,17.3101358 L18.1717262,17.3101358 L18.1717262,22.9653023 L0,22.9653023 L0,0 Z M20.5142081,0 L39.5318595,0 L39.5318595,4.90323302 L27.6262458,4.90323302 L27.6262458,8.55324362 L38.6702691,8.55324362 L38.6702691,13.2371626 L27.6262458,13.2371626 L27.6262458,17.764429 L39.8764957,17.764429 L39.8764957,22.9653023 L20.5142081,22.9653023 L20.5142081,0 Z M56.9600074,19.1743042 L48.8767221,19.1743042 L47.7644872,22.9653023 L40.511462,22.9653023 L49.143032,0 L56.8816808,0 L65.5132508,22.9653023 L58.0879076,22.9653023 L56.9600074,19.1743042 Z M55.4718056,14.20841 L52.9340301,5.95280693 L50.4119197,14.20841 L55.4718056,14.20841 Z M66.8844853,0 L78.680442,0 C81.249561,0 83.1737605,0.610939863 84.4530981,1.8328379 C85.7324359,3.05473589 86.3720951,4.79356482 86.3720951,7.04937651 C86.3720951,9.3678497 85.674997,11.1797825 84.2807801,12.4852291 C82.886563,13.7906758 80.758717,14.4433894 77.897178,14.4433894 L74.0121882,14.4433894 L74.0121882,22.9653023 L66.8844853,22.9653023 L66.8844853,0 Z M74.0121882,9.79080071 L75.7510345,9.79080071 C77.1191425,9.79080071 78.0799368,9.55321307 78.6334462,9.07803049 C79.1869556,8.60284791 79.4637061,7.99451892 79.4637061,7.25302519 C79.4637061,6.53241874 79.2235076,5.92147886 78.7431032,5.42018723 C78.2626989,4.91889576 77.3593433,4.66825384 76.0330095,4.66825384 L74.0121882,4.66825384 L74.0121882,9.79080071 Z M89.1845354,0 L100.980492,0 C103.549611,0 105.473811,0.610939863 106.753148,1.8328379 C108.032486,3.05473589 108.672145,4.79356482 108.672145,7.04937651 C108.672145,9.3678497 107.975047,11.1797825 106.58083,12.4852291 C105.186613,13.7906758 103.058767,14.4433894 100.197228,14.4433894 L96.3122384,14.4433894 L96.3122384,22.9653023 L89.1845354,22.9653023 L89.1845354,0 Z M96.3122384,9.79080071 L98.0510847,9.79080071 C99.4191927,9.79080071 100.379987,9.55321307 100.933496,9.07803049 C101.487006,8.60284791 101.763756,7.99451892 101.763756,7.25302519 C101.763756,6.53241874 101.523558,5.92147886 101.043153,5.42018723 C100.562749,4.91889576 99.6593935,4.66825384 98.3330597,4.66825384 L96.3122384,4.66825384 L96.3122384,9.79080071 Z" id="path-2"></path>
                    </g>
                </g>
            </g>
            <text id="Dashboard" font-family="Arial-BoldMT, Arial" font-size="32.4394464" font-weight="bold" fill="#FFFFFF">
                <tspan x="114.673443" y="36.9476644">Dashboard</tspan>
            </text>
        </g>
    </g>
</svg>